<?xml version="1.0" encoding="UTF-8"?>
<svg version="1.1" viewBox="0 0 886 1091" width="886" height="1091" xmlns="http://www.w3.org/2000/svg">
<path transform="translate(571,247)" d="m0 0 11 1 8 4 9 8 7 8 58 58 7 8 59 59 7 8 58 58 7 8 59 59 7 8 13 13 4 10v14l-21 80-23 87-24 91-23 87-13 49-4 8-4 5-10 6-220 60-169 46-7 1-10-2-8-4-47-47-7-8-58-58-7-8-59-59-7-8-59-59-7-8-37-37-5-10-1-4v-11l4-10 7-8 10-5 11-1 10 3 8 6 35 35 7 8 58 58 7 8 59 59 7 8 58 58 7 8 32 32 16-4 217-59 118-32h2l4-17 27-101 29-109 24-90 10-37v-6l-47-47-7-8-46-46-7-8-45-45-7-8-45-45-7-8-46-46-10 2-33 9h-13l-12-6-7-8-3-8v-15l5-10 7-7 8-4 59-16z" fill="#FE005E"/>
<path transform="translate(34,221)" d="m0 0h11l9 3 10 9 36 36 7 8 60 60 7 8 59 59 7 8 59 59 7 8 59 59 7 8 59 59 7 8 59 59 7 8 59 59 7 8 59 59 6 9 2 6v13l-4 10-4 5-9 6-7 2h-10l-10-4-8-7-57-57-7-8-59-59-7-8-59-59-7-8-59-59-7-8-59-59-7-8-59-59-7-8-59-59-7-8-59-59-7-8-42-42-6-12v-15l5-10 5-6 9-5z" fill="#FE005E"/>
<path transform="translate(44)" d="m0 0h11l9 4 8 7 53 53 7 8 60 60 7 8 60 60 7 8 60 60 7 8 59 59 6 10 1 3v15l-4 9-7 8-8 4-3 1h-14l-12-6-13-13-7-8-56-56-7-8-56-56-7-8-56-56-7-8-56-56-7-8-51-51-6-9-2-7v-11l3-9 9-10 8-4z" fill="#FE005E"/>
<path transform="translate(294,723)" d="m0 0h11l9 4 8 7 49 49 7 8 58 58 7 8 5 6 3 7 1 11-3 10-6 9-10 6-11 2-10-2-9-5-12-12-7-8-52-52-7-8-48-48-5-8-2-7v-12l4-9 7-8 6-4z" fill="#FE005E"/>
<path transform="translate(451,415)" d="m0 0h13l9 4 8 7 25 25 7 8 19 19 4 8 1 5v9l-3 9-4 6-8 7-9 3h-11l-10-4-10-9-11-11-7-8-30-30-5-10-1-12 3-10 6-8 8-6z" fill="#FE005E"/>
<path transform="translate(586,552)" d="m0 0h13l9 4 8 7 21 21 7 8 23 23 4 9 1 4v9l-4 11-8 9-8 4-4 1h-11l-10-4-10-9-15-15-7-8-26-26-5-10-1-5v-8l4-11 7-8 6-4z" fill="#FE005E"/>
<path transform="translate(159,586)" d="m0 0h10l10 4 8 7 42 42 7 8 4 5 3 8v13l-4 10-5 6-10 6-4 1h-12l-10-4-12-11-9-10-36-36-5-9-1-4v-13l4-10 5-6 8-5z" fill="#FE005E"/>
<path transform="translate(25,449)" d="m0 0h8l9 3 6 4 41 41 7 8 8 8 4 9 1 10-2 9-5 8-8 7-7 3h-15l-10-5-8-7-7-8-40-40-5-8-2-7v-11l4-10 8-9 9-4z" fill="#FE005E"/>
</svg>
